HIERARCHY
ROOT Hips
{
  OFFSET 279.157 85.6768 304.565
  CHANNELS 6 Xposition Yposition Zposition Zrotation Xrotation Yrotation
  JOINT LeftUpLeg
  {
    OFFSET 8.64259 1.95398 -2.38835
    CHANNELS 3 Zrotation Xrotation Yrotation
    JOINT LeftLeg
    {
      OFFSET 43.7702 0 0
      CHANNELS 3 Zrotation Xrotation Yrotation
      JOINT LeftFoot
      {
        OFFSET 40.6238 0 0
        CHANNELS 3 Zrotation Xrotation Yrotation
        JOINT LeftToeBase
        {
          OFFSET 12.7242 0 0
          CHANNELS 3 Zrotation Xrotation Yrotation
          End Site
          {
            OFFSET 0 0 0
          }
        }
      }
    }
  }
  JOINT RightUpLeg
  {
    OFFSET -8.2249 1.95398 -2.59336
    CHANNELS 3 Zrotation Xrotation Yrotation
    JOINT RightLeg
    {
      OFFSET 43.5653 0 0
      CHANNELS 3 Zrotation Xrotation Yrotation
      JOINT RightFoot
      {
        OFFSET 40.6238 0 0
        CHANNELS 3 Zrotation Xrotation Yrotation
        JOINT RightToeBase
        {
          OFFSET 12.7242 0 0
          CHANNELS 3 Zrotation Xrotation Yrotation
          End Site
          {
            OFFSET 0 0 0
          }
        }
      }
    }
  }
  JOINT Spine
  {
    OFFSET 0.165834 0.87714 6.61349
    CHANNELS 3 Zrotation Xrotation Yrotation
    JOINT Spine1
    {
      OFFSET 7.38963 1.71661e-005 0
      CHANNELS 3 Zrotation Xrotation Yrotation
      JOINT Spine2
      {
        OFFSET 11.9445 1.14441e-005 0
        CHANNELS 3 Zrotation Xrotation Yrotation
        JOINT Spine3
        {
          OFFSET 14.7254 4.19617e-005 0
          CHANNELS 3 Zrotation Xrotation Yrotation
          JOINT Spine4
          {
            OFFSET 10.9679 0 0
            CHANNELS 3 Zrotation Xrotation Yrotation
            JOINT RightShoulder
            {
              OFFSET 2.46616 -1.6653 3.69651
              CHANNELS 3 Zrotation Xrotation Yrotation
              JOINT RightArm
              {
                OFFSET 13.0012 0 0
                CHANNELS 3 Zrotation Xrotation Yrotation
                JOINT RightForeArm
                {
                  OFFSET 28.7848 1.52588e-005 0
                  CHANNELS 3 Zrotation Xrotation Yrotation
                  JOINT RightHand
                  {
                    OFFSET 26.5688 1.52588e-005 0
                    CHANNELS 3 Zrotation Xrotation Yrotation
                    End Site
                    {
                      OFFSET 0 0 0
                    }
                  }
                }
              }
            }
            JOINT LeftShoulder
            {
              OFFSET 2.38034 -1.29275 -3.7523
              CHANNELS 3 Zrotation Xrotation Yrotation
              JOINT LeftArm
              {
                OFFSET 16.3182 6.10351e-005 0
                CHANNELS 3 Zrotation Xrotation Yrotation
                JOINT LeftForeArm
                {
                  OFFSET 27.0901 0 0
                  CHANNELS 3 Zrotation Xrotation Yrotation
                  JOINT LeftHand
                  {
                    OFFSET 24.5451 1.52588e-005 0
                    CHANNELS 3 Zrotation Xrotation Yrotation
                    End Site
                    {
                      OFFSET 0 0 0
                    }
                  }
                }
              }
            }
            JOINT Neck
            {
              OFFSET 5.0226 -0.0266342 0
              CHANNELS 3 Zrotation Xrotation Yrotation
              JOINT Head
              {
                OFFSET 6.69364 2.86102e-005 0
                CHANNELS 3 Zrotation Xrotation Yrotation
                End Site
                {
                  OFFSET 0 0 0
                }
              }
            }
          }
        }
      }
    }
  }
}
MOTION
Frames:	12
Frame Time:	0.0416667
-121.198 12.9947 113.102 -15.1992 -2.89378 -92.1513 -169.937 -8.78546 95.1835 -21.1581 0.513219 -0.531422 69.0185 6.00298 -3.39382 19.9726 -8.35247 10.2987 163.741 -7.53943 76.1255 -24.8235 -7.47169 1.70944 69.2414 -4.01909 4.09277 34.7592 -2.11982 1.12569 -0.753685 7.95453 -89.2322 10.9709 -1.14487 1.6365 -0.700596 -1.07175 1.68527 -23.2347 -1.58375 1.21682 -3.22206 -1.58375 1.21681 81.9223 -20.7798 -128.56 -15.1952 49.6684 35.931 -54.7352 11.0425 -142.622 -45.389 -20.3807 37.0707 -92.5724 -36.6601 70.9451 26.1583 -43.2366 40.4535 35.7996 -28.4796 -144.942 29.3154 7.3776 21.5294 59.2591 1.27542 -7.51657 -21.1558 5.62249 4.07182 
-121.093 13.4606 112.664 -14.1895 -0.889089 -92.7603 -169.97 -8.40029 94.2139 -20.2215 -0.0774848 -1.14328 68.1237 5.96662 -2.45907 20.3498 -8.01003 10.0633 164.621 -4.70092 76.2963 -26.995 -10.2891 0.930494 69.0263 -4.4092 0.979449 36.0051 -2.5415 1.33309 -0.64873 7.82083 -89.0359 11.2353 -0.84249 2.00296 -0.436952 -0.753534 2.03808 -22.9652 -1.40544 1.6573 -2.95251 -1.40542 1.65732 81.0843 -21.9446 -129.391 -15.1998 49.4677 34.9881 -55.3731 10.8274 -143.42 -45.8797 -21.5096 39.3067 -89.3773 -32.8141 75.3826 14.1585 -40.6089 34.5166 39.4844 -32.6666 -143.124 31.8798 8.32365 22.4827 58.8162 -0.32479 -10.9173 -21.2902 5.90902 7.04584 
-121.116 13.3665 112.759 -14.2062 -1.20878 -92.9532 -170.138 -8.53881 94.046 -20.0045 0.374486 -1.06321 67.9147 5.92883 -2.1565 20.1251 -7.98711 9.58013 164.342 -4.82689 75.9816 -26.8273 -10.1113 1.06454 69.0833 -4.36719 1.3314 36.6602 -2.74235 1.10113 -0.670818 7.79953 -89.0288 11.2788 -0.882674 2.02131 -0.393492 -0.792895 2.05815 -22.9219 -1.44928 1.66272 -2.9092 -1.44929 1.6627 81.5713 -21.3817 -128.825 -12.2223 49.055 33.357 -56.0804 12.1772 -142.366 -45.3087 -21.1509 39.0074 -90.0002 -33.0422 74.3177 15.4225 -40.0115 35.6722 39.6504 -32.3295 -142.934 33.2105 8.83354 22.9645 58.5198 -0.275972 -10.9611 -21.1322 5.98269 6.92773 
-121.123 13.3529 112.787 -14.1635 -1.28357 -92.9046 -170.163 -8.40091 94.0983 -20.1731 -0.0230404 -1.03696 68.0495 5.81991 -2.78972 20.2646 -7.98027 9.8215 164.286 -4.84425 75.9596 -26.6703 -10.4177 1.11194 69.0119 -4.36617 1.29499 35.9149 -2.48256 0.839373 -0.634329 7.77084 -89.0483 11.3356 -0.818566 1.97714 -0.336633 -0.730774 2.01121 -22.8649 -1.37488 1.63984 -2.85226 -1.37484 1.63985 82.4234 -20.8713 -127.438 -7.67194 47.6967 30.4753 -57.6419 14.5214 -140.415 -44.4412 -20.8777 39.2291 -90.4118 -33.3754 73.6743 15.8909 -39.8049 35.8313 40.3337 -32.6112 -142.521 33.7212 9.14957 23.4851 58.2184 -0.346124 -11.1809 -21.1693 5.88187 7.73654 
-121.132 13.3127 112.883 -14.1833 -1.45289 -93.0184 -170.33 -8.52624 93.8729 -20.0471 0.0911815 -0.96852 67.9823 5.86743 -2.47331 20.1619 -7.9665 9.59159 164.024 -4.813 75.69 -26.6632 -10.6721 1.23786 68.8349 -4.32334 1.03555 38.2814 -3.27963 1.27051 -0.648787 7.77306 -89.0689 11.3316 -0.856982 1.93965 -0.3406 -0.770841 1.97544 -22.8696 -1.40028 1.59254 -2.85692 -1.40025 1.59254 82.5004 -20.6072 -127.477 -7.34165 47.4482 30.439 -58.5127 15.8321 -139.654 -44.5751 -21.1529 39.4721 -90.701 -34.0324 73.3643 16.7911 -40.1433 36.0653 40.778 -32.9263 -142.451 33.9123 9.41773 24.1097 58.5351 0.00972131 -10.2613 -21.2531 5.79503 6.72497 
-121.114 13.2622 112.943 -14.1806 -1.66736 -92.9321 -170.435 -8.45352 93.9039 -20.1877 0.155952 -0.842358 68.1408 5.93462 -2.50996 20.5132 -7.91543 10.1083 163.971 -5.04855 75.7592 -26.4408 -10.2782 1.32488 69.0449 -4.42099 1.20962 37.8172 -3.13016 1.31457 -0.637425 7.76703 -89.1107 11.3388 -0.853797 1.85678 -0.333199 -0.771239 1.89256 -22.8629 -1.3723 1.51447 -2.8503 -1.3723 1.51445 82.9315 -20.3961 -126.724 -5.18686 46.0727 28.9915 -60.28 17.6516 -137.798 -44.5935 -21.3588 39.6841 -90.9144 -34.382 73.0954 16.784 -40.2167 35.7959 41.6685 -33.5373 -142.004 34.0487 9.64129 24.643 58.5478 0.226809 -9.83339 -21.291 5.712 6.65267 
-121.119 13.3176 112.852 -14.1845 -1.36032 -93.0157 -170.32 -8.52625 93.8921 -20.0457 0.423692 -0.963645 67.8676 5.8595 -2.30587 20.5174 -7.83931 9.90551 164.14 -4.82809 75.7734 -26.7285 -10.3461 1.15444 69.1049 -4.39517 1.33494 37.8692 -3.13146 0.927364 -0.5666 7.77024 -89.1245 11.336 -0.719472 1.81536 -0.336053 -0.638888 1.84524 -22.8652 -1.23174 1.51531 -2.85257 -1.23174 1.51529 83.3537 -20.3626 -125.847 -2.95419 44.5444 27.4241 -62.2416 19.8285 -135.539 -44.7556 -21.4855 39.4466 -91.1901 -34.6676 72.6969 16.3279 -39.9102 35.474 42.5861 -34.2803 -141.522 34.0236 9.74734 24.9511 58.1744 0.227837 -9.77808 -20.9515 5.53982 7.27151 
-121.117 13.316 112.851 -14.2177 -1.49683 -93.0409 -170.277 -8.53986 93.9376 -20.0294 0.494895 -0.970593 67.9765 5.95025 -2.23331 19.8952 -7.98638 9.1535 164.05 -4.87873 75.7231 -26.6878 -10.4391 1.22766 69.0063 -4.38426 1.14288 38.0348 -3.19066 1.05009 -0.550964 7.78458 -89.1756 11.3073 -0.712325 1.71246 -0.36463 -0.636267 1.74213 -22.8947 -1.19402 1.41929 -2.882 -1.19401 1.4193 84.0176 -19.6741 -124.927 -0.150646 42.7872 25.7562 -64.5974 21.7945 -132.859 -45.0052 -21.6063 39.0714 -91.5007 -35.2226 72.3302 16.6968 -40.2498 35.3371 43.4094 -34.5907 -141.131 34.9169 10.2584 25.6761 58.3988 0.732392 -8.60746 -20.8785 5.37518 6.4524 
-121.126 13.3142 112.806 -14.1058 -1.36364 -92.9441 -170.229 -8.49488 94.0232 -19.9484 0.494321 -0.982602 67.9741 5.92782 -2.3472 20.0917 -7.98999 9.52608 164.209 -4.82185 75.9198 -26.6915 -10.5156 1.16069 69.0575 -4.44639 0.998909 37.7618 -3.10827 1.22159 -0.496111 7.76657 -89.217 11.3427 -0.622228 1.62147 -0.329184 -0.550265 1.64725 -22.8594 -1.08073 1.35959 -2.84679 -1.08074 1.35956 84.4959 -19.3282 -124.135 2.26591 41.008 24.3678 -66.7719 24.0102 -129.948 -44.8947 -21.3801 38.3081 -91.817 -35.6364 71.912 16.7578 -40.501 34.9478 43.9342 -34.9143 -140.892 34.8245 10.3413 25.9817 58.3397 0.956447 -7.96346 -20.7709 5.1948 6.15352 
-121.125 13.2879 112.828 -14.1263 -1.47401 -93.009 -170.346 -8.47217 93.9008 -20.0502 0.416777 -0.924938 67.8962 5.91084 -2.16668 20.6093 -7.79528 9.95496 164.123 -4.89022 75.8346 -26.6411 -10.2218 1.21235 69.2143 -4.49492 1.14699 37.5343 -3.03682 1.28626 -0.477832 7.77885 -89.2452 11.3216 -0.599149 1.56253 -0.350212 -0.529815 1.58738 -22.8808 -1.04103 1.31029 -2.86814 -1.04103 1.31029 84.9317 -19.0084 -123.405 3.96059 39.7089 23.4004 -68.8111 25.5167 -127.646 -44.9718 -21.2559 37.5783 -92.0394 -35.8024 71.5787 16.3783 -40.8292 34.8817 44.0152 -35.1111 -140.909 33.7144 9.82948 25.4625 58.5036 1.17641 -7.37711 -20.8286 5.06237 5.83676 
-121.121 13.3012 112.835 -14.118 -1.43308 -93.0519 -170.363 -8.5288 93.8467 -19.9163 0.360934 -0.935788 67.8199 5.87994 -2.19818 20.6298 -7.70552 9.74262 164.14 -4.80642 75.8028 -26.766 -10.0463 1.19207 69.2851 -4.48671 1.29067 37.6882 -3.08925 1.34012 -0.427382 7.78209 -89.2853 11.3208 -0.517374 1.47392 -0.350959 -0.45202 1.49524 -22.8818 -0.936402 1.25033 -2.86913 -0.936412 1.25033 85.6884 -18.5873 -122.016 7.09591 37.2902 21.3834 -71.3253 27.212 -124.07 -45.9901 -21.3257 36.2048 -92.3427 -36.0909 71.1476 15.8364 -40.4544 34.1822 44.5218 -35.1651 -140.34 35.0225 10.3377 25.8075 58.5335 1.39577 -6.77755 -20.7699 4.86144 5.80523 
-121.119 13.2822 112.898 -14.1648 -1.5311 -93.0556 -170.388 -8.589 93.824 -19.8821 0.526931 -0.921505 67.8242 5.92625 -2.04044 20.1797 -7.80034 9.16621 164.015 -4.86744 75.7029 -26.705 -10.1139 1.27404 69.1726 -4.41786 1.35423 37.9369 -3.16375 1.17993 -0.398169 7.77424 -89.3255 11.3261 -0.477957 1.39084 -0.345511 -0.416264 1.41052 -22.8768 -0.873824 1.18293 -2.86412 -0.873833 1.18294 86.0648 -18.4794 -121.24 8.31214 36.5411 20.4282 -72.6125 27.9432 -122.396 -47.0425 -21.242 34.4895 -92.6985 -36.4097 70.6408 15.4316 -40.0167 33.7898 44.1354 -34.574 -140.27 34.801 10.0562 25.1999 58.2116 1.39369 -6.393 -20.7099 4.54251 6.00989 
